#!OML:ASF E:/inclinewalkrobotboard/Project1/Captureday1/Session1/subject1.ASF
:FULLY-SPECIFIED
:DEGREES
76
root 0 0 0 1.1079243196794635 -3.740348871026929 1.8027861249916421
lowerback 11.995077922974732 0.8619742397059736 -0.07693538029877878
upperback -4.182666416015965 1.0909850093388054 -0.5396069514989181
thorax -11.29739039209116 0.5003665652333968 -0.7745955117008723
lowerneck -5.922142933254072 1.4702470443299624 4.520553866075926
upperneck 18.041425137960807 2.9156600937482957 -8.266368909512002
head 6.6160117644823675 1.0618063988262667 -3.194295065699311
rclavicle -1.250650245890044E-15 4.177156227397229E-16
rhumerus 19.642022746775318 14.047355389030724 -47.80790152178225
rradius 72.07165123099627
rwrist 27.219677229179517
rhand -34.884987094598586 -57.53262080537479
rfingers 7.125020000000043
rthumb -8.026388140762002 -87.31224035636585
lclavicle 1.037089202645354E-15 -2.6922368060035367E-15
lhumerus 20.599727459485788 -12.31217376516523 45.61965711203611
lradius 69.5345321029665
lwrist -22.20311107385442
lhand -44.75898003061604 -70.16144304522219
lfingers 7.125020000000015
lthumb -17.566544979425927 -41.05537235713854
rfemur -25.190053675214337 -2.1624739166549145 16.895612178259064
rtibia 54.1965639579682
rfoot -28.225327788086858 -16.763850568830104
rtoes -17.85633528245729
lfemur -27.44120538755722 2.481684154660242 -18.264033175048745
ltibia 53.65905999744015
lfoot -31.882802604386313 -3.252591137621214
ltoes -19.56716680583138
77
root 0 0 0 1.1080342222166721 -3.740138160538097 1.8028447690904548
lowerback 11.99527362644408 0.8620103121067606 -0.07695521287725082
upperback -4.182590784486744 1.0910311004877462 -0.5396447174632903
thorax -11.297419697516078 0.5003884446165527 -0.7746348620102067
lowerneck -5.922319383620808 1.4701755664088436 4.520560513247163
upperneck 18.04113235142053 2.915532277751944 -8.266376407552315
head 6.615951058122859 1.0617498562667715 -3.1943065974591818
rclavicle -1.2284833140697297E-15 3.9667701668295054E-16
rhumerus 19.641542900739772 14.047537311987035 -47.808086849597835
rradius 72.0706844670982
rwrist 27.218729222369394
rhand -34.88335574894026 -57.52897733149588
rfingers 7.125020000000043
rthumb -8.024869063203171 -87.30850355482558
lclavicle 1.0815533193584238E-15 -2.7189049087595702E-15
lhumerus 20.599158519574967 -12.313168607367315 45.617222086507056
lradius 69.53473322928345
lwrist -22.203902982454224
lhand -44.75688773961113 -70.15157448367482
lfingers 7.125020000000015
lthumb -17.56470902244779 -41.044954643115446
rfemur -25.190923383509926 -2.1624293488256505 16.89648907071323
rtibia 54.19822325897675
rfoot -28.226713997676676 -16.76442321131211
rtoes -17.855130515746552
lfemur -27.4427374438398 2.482257092944084 -18.26488275842025
ltibia 53.661445885165165
lfoot -31.88571830888301 -3.25306905092704
ltoes -19.563944723732146
78
root 0 0 0 1.1079960960761246 -3.7401595937541123 1.802838520774936
lowerback 11.995300027198887 0.8620106932513036 -0.07693976188363175
upperback -4.182549687512868 1.0910354024154076 -0.5396347886856998
thorax -11.297389370780778 0.5003897987966315 -0.7746343610210558
lowerneck -5.922204515793437 1.4701457849456427 4.520599141219498
upperneck 18.040980525370898 2.9154932059963 -8.266462658673554
head 6.615882419597583 1.0617325162785614 -3.1943429116635693
rclavicle -1.2339527485076294E-15 3.9912722534542587E-16
rhumerus 19.641326059508764 14.047351381127182 -47.80818156457665
rradius 72.07054398824476
rwrist 27.218717457716828
rhand -34.88336079620351 -57.52893789752114
rfingers 7.125020000000043
rthumb -8.024863257605794 -87.30849189516255
lclavicle 1.0734473839680897E-15 -2.715708430363948E-15
lhumerus 20.599406646133897 -12.313543634972707 45.61706398889052
lradius 69.53483012756845
lwrist -22.203846931155105
lhand -44.75680671249224 -70.15040432416598
lfingers 7.125020000000015
lthumb -17.564613415236852 -41.04379251971439
rfemur -25.191181332994276 -2.1624506068819547 16.896466396011867
rtibia 54.198144624327995
rfoot -28.226819951079896 -16.764543138269595
rtoes -17.85486026082595
lfemur -27.442769007641353 2.4823308323148177 -18.264950210080272
ltibia 53.66169269756541
lfoot -31.88587431747756 -3.2530085952373207
ltoes -19.56361567729553
79
root 0 0 0 1.1079565865006749 -3.7401848011792675 1.8028316149203856
lowerback 11.995322017216802 0.8620102029264094 -0.07692348036376423
upperback -4.182509638387274 1.0910387102544368 -0.5396241588981019
thorax -11.297357491672594 0.5003906405130137 -0.7746333260181111
lowerneck -5.9220800749698554 1.47011576848929 4.52063769347121
upperneck 18.040830192005462 2.9154542992107255 -8.266549967497724
head 6.615812657064652 1.0617153526848366 -3.1943796534394733
rclavicle -1.235134635063334E-15 3.992141040022848E-16
rhumerus 19.641350947794244 14.047381097138647 -47.808182269867636
rradius 72.07058202596912
rwrist 27.21873851473996
rhand -34.88340038190773 -57.529061068903715
rfingers 7.125020000000043
rthumb -8.024905175586317 -87.3086181054698
lclavicle 1.0715532426795602E-15 -2.715639045971613E-15
lhumerus 20.599489886132666 -12.313580006267069 45.61700387097882
lradius 69.53487663397738
lwrist -22.2038716253113
lhand -44.75682467933772 -70.15036944738661
lfingers 7.125020000000015
lthumb -17.564620646564126 -41.04375427997924
rfemur -25.191157809172044 -2.1624446415014673 16.896484704077412
rtibia 54.19812195658243
rfoot -28.226903542333318 -16.764581587497076
rtoes -17.854860299042546
lfemur -27.442834272467145 2.4823180116131 -18.26493770880016
ltibia 53.661659024507344
lfoot -31.885986980342867 -3.252928711194333
ltoes -19.563692014540216
